HIERARCHY
ROOT Hips
{
  OFFSET 50.1555 85.579 -16.4217
  CHANNELS 6 Xposition Yposition Zposition Zrotation Xrotation Yrotation
  JOINT spine
  {
    OFFSET 0 6.3926 0.367606
    CHANNELS 3 Zrotation Xrotation Yrotation
    JOINT spine1
    {
      OFFSET 0 9.17611 0
      CHANNELS 3 Zrotation Xrotation Yrotation
      JOINT spine2
      {
        OFFSET 0 8.79238 0
        CHANNELS 3 Zrotation Xrotation Yrotation
        JOINT Neck
        {
          OFFSET 0 22.5737 1.07624
          CHANNELS 3 Zrotation Xrotation Yrotation
          JOINT Head
          {
            OFFSET 0 6.82011 0
            CHANNELS 3 Zrotation Xrotation Yrotation
            End Site
            {
              OFFSET 0 16.5085 -5.44427
            }
          }
        }
        JOINT RightShoulder
        {
          OFFSET -3.70221 9.49509 -0.515508
          CHANNELS 3 Zrotation Xrotation Yrotation
          JOINT RightArm
          {
            OFFSET 0 12.4537 0
            CHANNELS 3 Zrotation Xrotation Yrotation
            JOINT RightArmRoll
            {
              OFFSET 0 6.28686 0
              CHANNELS 3 Zrotation Xrotation Yrotation
              JOINT RightForeArm
              {
                OFFSET 0 18.3114 0
                CHANNELS 3 Zrotation Xrotation Yrotation
                JOINT RightForeArmRoll
                {
                  OFFSET 0 7.05483 0
                  CHANNELS 3 Zrotation Xrotation Yrotation
                  JOINT RightHand
                  {
                    OFFSET 0 14.1575 0
                    CHANNELS 3 Zrotation Xrotation Yrotation
                    End Site
                    {
                      OFFSET 0 0 0
                    }
                  }
                }
              }
            }
          }
        }
        JOINT LeftShoulder
        {
          OFFSET 3.70221 9.49509 -0.515508
          CHANNELS 3 Zrotation Xrotation Yrotation
          JOINT LeftArm
          {
            OFFSET 0 12.4537 0
            CHANNELS 3 Zrotation Xrotation Yrotation
            JOINT LeftArmRoll
            {
              OFFSET 0 6.28686 0
              CHANNELS 3 Zrotation Xrotation Yrotation
              JOINT LeftForeArm
              {
                OFFSET 0 18.3114 0
                CHANNELS 3 Zrotation Xrotation Yrotation
                JOINT LeftForeArmRoll
                {
                  OFFSET 0 7.05483 0
                  CHANNELS 3 Zrotation Xrotation Yrotation
                  JOINT LeftHand
                  {
                    OFFSET 0 14.1575 0
                    CHANNELS 3 Zrotation Xrotation Yrotation
                    End Site
                    {
                      OFFSET 0 0 0
                    }
                  }
                }
              }
            }
          }
        }
      }
    }
  }
  JOINT RightUpLeg
  {
    OFFSET -5.66616 -1.03903 -0.87161
    CHANNELS 3 Zrotation Xrotation Yrotation
    JOINT RightUpLegRoll
    {
      OFFSET 0 16.6005 0
      CHANNELS 3 Zrotation Xrotation Yrotation
      JOINT RightLeg
      {
        OFFSET 0 -20.5572 0
        CHANNELS 3 Zrotation Xrotation Yrotation
        JOINT RightLegRoll
        {
          OFFSET 0 20.6244 0
          CHANNELS 3 Zrotation Xrotation Yrotation
          JOINT RightFoot
          {
            OFFSET 0 17.1664 0
            CHANNELS 3 Zrotation Xrotation Yrotation
            JOINT RightToeBase
            {
              OFFSET 0 14.3502 0
              CHANNELS 3 Zrotation Xrotation Yrotation
              End Site
              {
                OFFSET 0.00608252 6.94971 -0.801061
              }
            }
          }
        }
      }
    }
  }
  JOINT LeftUpLeg
  {
    OFFSET 5.66616 -1.03903 -0.87161
    CHANNELS 3 Zrotation Xrotation Yrotation
    JOINT LeftUpLegRoll
    {
      OFFSET 0 16.6006 0
      CHANNELS 3 Zrotation Xrotation Yrotation
      JOINT LeftLeg
      {
        OFFSET 0 20.5571 0
        CHANNELS 3 Zrotation Xrotation Yrotation
        JOINT LeftLegRoll
        {
          OFFSET 0 20.8151 0
          CHANNELS 3 Zrotation Xrotation Yrotation
          JOINT LeftFoot
          {
            OFFSET 0 16.9757 0
            CHANNELS 3 Zrotation Xrotation Yrotation
            JOINT LeftToeBase
            {
              OFFSET 0 14.3502 0
              CHANNELS 3 Zrotation Xrotation Yrotation
              End Site
              {
                OFFSET -0.0272592 6.9497 -0.801061
              }
            }
          }
        }
      }
    }
  }
}
MOTION
Frames: 5
Frame Time: 0.00208333
53.6075 85.6165 10.5242 -1.56652 -1.12347 1.43836 -0.397914 -1.47883 -0.164873 -0.809321 1.04606 -0.289127 -0.806379 2.69104 -0.275714 9.09643 8.11417 -2.34216 -4.96966 4.04586 -0.0549598 64.1777 -5.60493 -3.76089 109.327 18.8258 -0.851932 -1.31838e-006 -4.52883e-007 -2.47254e-006 16.2888 5.86261 -0.982075 3.13322e-006 2.14592e-006 -3.01311 8.02901 -4.95143 0.697688 -49.0773 0.238244 -1.49653 -117.65 15.759 4.15195 4.93499e-006 -3.49522e-006 3.18961e-006 -11.0296 4.90148 0.98803 7.08204e-006 -4.98787e-006 3 -8.02887 -4.95145 -0.697685 179.208 0.693072 -1.09651 180 7.01563e-015 178.993 176.992 7.06949 179.736 6.39798e-007 2.19306e-006 0.0806122 -18.7955 68.3199 19.7918 8.12973 25.233 -3.48486 -176.224 -0.184399 0.928396 -1.07169e-005 -4.64205e-006 -1.05278 -1.42664 -9.01482 0.399674 -3.27036e-006 -6.58709e-007 -0.193875 20.9902 70.7834 -22.1532 -8.1456 25.4688 3.16823 
53.6079 85.6072 10.5028 -1.55729 -1.07939 1.43165 -0.397946 -1.4812 -0.166247 -0.808612 1.04133 -0.293171 -0.805621 2.6863 -0.279772 9.06291 8.13818 -2.31965 -4.96715 4.02355 -0.04091 64.167 -5.55216 -3.73044 109.32 18.8195 -0.866244 -1.31838e-006 -4.52883e-007 -2.47254e-006 16.2939 5.90814 -0.988804 3.13322e-006 2.14592e-006 -3.01311 8.02901 -4.95143 0.697688 -49.0712 0.22695 -1.48904 -117.662 15.7319 4.15229 4.93499e-006 -3.49522e-006 3.18961e-006 -11.027 4.98898 0.997931 7.08204e-006 -4.98787e-006 3 -8.02887 -4.95145 -0.697685 179.196 0.771636 -1.09605 180 7.01563e-015 178.994 176.993 7.10927 179.736 6.39798e-007 2.19306e-006 0.0810249 -18.7967 68.3213 19.7934 8.12973 25.233 -3.48486 -176.244 -0.109502 0.947353 -1.07169e-005 -4.64205e-006 -1.05211 -1.41941 -9.05347 0.400445 -3.27036e-006 -6.58709e-007 -0.194109 20.9936 70.7863 -22.1569 -8.14568 25.4701 3.16619 
53.6057 85.6072 10.4784 -1.54808 -1.03577 1.42484 -0.397969 -1.48373 -0.167674 -0.807857 1.0363 -0.297411 -0.804813 2.68127 -0.284026 9.0291 8.16447 -2.29706 -4.96483 3.99983 -0.0267685 64.1567 -5.49797 -3.69923 109.311 18.8127 -0.880369 -1.31838e-006 -4.52883e-007 -2.47254e-006 16.2994 5.95363 -0.995501 3.13322e-006 2.14592e-006 -3.01311 8.02901 -4.95143 0.697688 -49.0657 0.216141 -1.48182 -117.672 15.7036 4.15127 4.93499e-006 -3.49522e-006 3.18961e-006 -11.0243 5.07727 1.00795 7.08204e-006 -4.98787e-006 3 -8.02887 -4.95145 -0.697685 179.184 0.848953 -1.09551 180 7.01563e-015 178.995 176.993 7.14803 179.736 6.39798e-007 2.19306e-006 0.0814179 -18.7979 68.3226 19.7949 8.12973 25.233 -3.48486 -176.263 -0.0358295 0.966182 -1.07169e-005 -4.64205e-006 -1.05145 -1.41224 -9.09091 0.401181 -3.27036e-006 -6.58709e-007 -0.19431 20.9967 70.7889 -22.1601 -8.14576 25.4712 3.16419 
53.6061 85.607 10.463 -1.53888 -0.992482 1.41798 -0.397985 -1.48635 -0.169139 -0.807069 1.03106 -0.301787 -0.80397 2.67604 -0.288417 8.99506 8.19234 -2.27441 -4.96265 3.97513 -0.0125631 64.1469 -5.44278 -3.66751 109.302 18.8055 -0.894362 -1.31838e-006 -4.52883e-007 -2.47254e-006 16.3052 5.99912 -1.00218 3.13322e-006 2.14592e-006 -3.01311 8.02901 -4.95143 0.697688 -49.0607 0.205672 -1.47478 -117.683 15.6744 4.14931 4.93499e-006 -3.49522e-006 3.18961e-006 -11.0215 5.1661 1.01804 7.08204e-006 -4.98787e-006 3 -8.02887 -4.95145 -0.697685 179.173 0.925397 -1.09491 180 7.01563e-015 178.996 176.993 7.18608 179.737 6.39798e-007 2.19306e-006 0.0817973 -18.7991 68.324 19.7964 8.12973 25.233 -3.48486 -176.282 0.0369861 0.984923 -1.07169e-005 -4.64205e-006 -1.05081 -1.4051 -9.12749 0.401892 -3.27036e-006 -6.58709e-007 -0.194487 20.9995 70.7912 -22.1631 -8.14584 25.4724 3.16222 
53.6145 85.6035 10.4559 -1.52969 -0.949383 1.41108 -0.397997 -1.48904 -0.170626 -0.806263 1.0257 -0.306241 -0.803109 2.67068 -0.292887 8.96088 8.22113 -2.25172 -4.96053 3.94986 0.00167839 64.1371 -5.38703 -3.6355 109.292 18.7981 -0.908281 -1.31838e-006 -4.52883e-007 -2.47254e-006 16.3111 6.04459 -1.00884 3.13322e-006 2.14592e-006 -3.01311 8.02901 -4.95143 0.697688 -49.056 0.195396 -1.46784 -117.692 15.6448 4.1468 4.93499e-006 -3.49522e-006 3.18961e-006 -11.0187 5.25523 1.02818 7.08204e-006 -4.98787e-006 3 -8.02887 -4.95145 -0.697685 179.161 1.00134 -1.09427 180 7.01563e-015 178.997 176.993 7.22374 179.737 6.39798e-007 2.19306e-006 0.0821687 -18.8002 68.3252 19.7979 8.12973 25.233 -3.48486 -176.302 0.109312 1.00361 -1.07169e-005 -4.64205e-006 -1.05017 -1.39799 -9.16359 0.40259 -3.27036e-006 -6.58709e-007 -0.194651 21.0021 70.7934 -22.166 -8.14592 25.4735 3.16026 
